<svg width="736" height="1130" viewBox="0 0 736 1130" fill="none" xmlns="http://www.w3.org/2000/svg">
<g clip-path="url(#clip0_1830_157)">
<g clip-path="url(#clip1_1830_157)">
<path d="M592.881 722.921C618.093 722.921 638.531 702.469 638.531 677.24C638.531 652.011 618.093 631.559 592.881 631.559C567.67 631.559 547.232 652.011 547.232 677.24C547.232 702.469 567.67 722.921 592.881 722.921Z" fill="#17191D"/>
<path d="M680.83 590.754C717.607 553.952 717.607 494.283 680.83 457.481C644.053 420.679 584.426 420.679 547.649 457.481C510.872 494.283 510.872 553.952 547.649 590.754C584.426 627.557 644.053 627.557 680.83 590.754Z" fill="#17191D"/>
<path d="M641.407 591.155C693.418 591.155 735.581 548.962 735.581 496.915C735.581 444.868 693.418 402.676 641.407 402.676C589.396 402.676 547.232 444.868 547.232 496.915C547.232 548.962 589.396 591.155 641.407 591.155Z" fill="#FF0B53"/>
<path d="M608.699 1130C660.71 1130 702.873 1087.81 702.873 1035.76C702.873 983.713 660.71 941.521 608.699 941.521C556.687 941.521 514.524 983.713 514.524 1035.76C514.524 1087.81 556.687 1130 608.699 1130Z" fill="#FF0B53"/>
<path d="M440.251 192.479C492.262 192.479 534.425 150.286 534.425 98.2394C534.425 46.1924 492.262 4 440.251 4C388.24 4 346.076 46.1924 346.076 98.2394C346.076 150.286 388.24 192.479 440.251 192.479Z" fill="#FF0B53"/>
<path d="M823.879 278.269C875.81 226.302 875.81 142.047 823.879 90.0803C771.947 38.1133 687.751 38.1134 635.819 90.0803C583.888 142.047 583.888 226.302 635.819 278.269C687.751 330.236 771.947 330.236 823.879 278.269Z" stroke="#FF0B53" stroke-width="20" stroke-miterlimit="10"/>
<path d="M502.027 835.04C523.011 786.158 500.423 729.509 451.575 708.51C402.726 687.511 346.116 710.115 325.132 758.997C304.147 807.879 326.736 864.528 375.584 885.527C424.432 906.526 481.042 883.922 502.027 835.04Z" stroke="#FF0B53" stroke-width="20" stroke-miterlimit="10"/>
<path d="M752.127 700.666V896.032L592.882 798.339L752.127 700.666Z" fill="#17191D"/>
<path d="M709.008 700.666V896.032L549.763 798.339L709.008 700.666Z" stroke="#17191D" stroke-miterlimit="10"/>
<path d="M389.022 130.682C389.022 141.656 374.988 141.656 374.988 152.63C374.988 163.605 389.022 163.605 389.022 174.579C389.022 185.553 374.988 185.553 374.988 196.527C374.988 207.501 389.022 207.501 389.022 218.475C389.022 229.449 374.988 229.449 374.988 240.423C374.988 251.398 389.022 251.398 389.022 262.372C389.022 273.346 374.988 273.346 374.988 284.339C374.988 295.313 389.022 295.313 389.022 306.307" stroke="#17191D" stroke-miterlimit="10"/>
<path d="M714.051 492.176V484.963L805.598 527.689V534.903L714.051 492.176Z" fill="#17191D"/>
<path d="M714.051 515.602V508.388L805.598 551.114V558.328L714.051 515.602Z" fill="#17191D"/>
<path d="M714.051 539.047V531.833L805.598 574.54V581.754L714.051 539.047Z" fill="#17191D"/>
<path d="M714.051 562.472V555.259L805.598 597.985V605.199L714.051 562.472Z" fill="#17191D"/>
<path d="M714.051 585.898V578.684L805.598 621.41V628.624L714.051 585.898Z" fill="#17191D"/>
<path d="M714.051 609.343V602.129L805.598 644.836V652.05L714.051 609.343Z" fill="#17191D"/>
<path d="M714.051 632.768V625.554L805.598 668.281V675.494L714.051 632.768Z" fill="#17191D"/>
<path d="M714.051 656.194V648.98L805.598 691.706V698.92L714.051 656.194Z" fill="#17191D"/>
<path d="M304.894 276.684C250.886 330.73 250.886 418.37 304.894 472.415C358.903 526.461 446.482 526.461 500.49 472.415L304.894 276.684Z" fill="#FF0B53"/>
<path d="M584.716 448.282C662.183 446.002 723.135 381.311 720.856 303.791C718.578 226.271 653.932 165.276 576.465 167.556C498.998 169.837 438.046 234.527 440.325 312.048C442.603 389.568 507.249 450.562 584.716 448.282Z" stroke="#17191D" stroke-width="2" stroke-linecap="round" stroke-linejoin="round"/>
<path d="M584.499 426.067C649.718 423.892 700.826 369.223 698.653 303.96C696.48 238.697 641.848 187.553 576.63 189.728C511.412 191.902 460.304 246.571 462.477 311.835C464.65 377.098 519.281 428.241 584.499 426.067Z" stroke="#17191D" stroke-width="2" stroke-linecap="round" stroke-linejoin="round"/>
<path d="M595.959 402.739C648.292 394.24 683.832 344.896 675.338 292.527C666.845 240.158 617.535 204.594 565.202 213.093C512.869 221.592 477.33 270.936 485.824 323.305C494.317 375.675 543.626 411.238 595.959 402.739Z" stroke="#17191D" stroke-width="2" stroke-linecap="round" stroke-linejoin="round"/>
<path d="M596.19 380.114C636.041 371.476 661.349 332.145 652.717 292.266C644.084 252.388 604.781 227.063 564.93 235.701C525.079 244.34 499.771 283.67 508.404 323.549C517.036 363.427 556.34 388.752 596.19 380.114Z" stroke="#17191D" stroke-width="2" stroke-linecap="round" stroke-linejoin="round"/>
<path d="M600.355 355.689C626.72 344.76 639.239 314.514 628.318 288.131C617.398 261.748 587.172 249.22 560.807 260.148C534.443 271.076 521.923 301.323 532.844 327.706C543.765 354.089 573.99 366.617 600.355 355.689Z" stroke="#17191D" stroke-width="2" stroke-linecap="round" stroke-linejoin="round"/>
<path d="M345.559 481.989C345.559 480.684 344.504 479.629 343.201 479.629C341.897 479.629 340.842 480.684 340.842 481.989C340.842 483.293 341.897 484.349 343.201 484.349C344.504 484.349 345.559 483.293 345.559 481.989Z" fill="#EAEAEA"/>
<path d="M384.364 481.989C384.364 480.684 383.309 479.629 382.005 479.629C380.702 479.629 379.647 480.684 379.647 481.989C379.647 483.293 380.702 484.349 382.005 484.349C383.309 484.349 384.364 483.293 384.364 481.989Z" fill="#EAEAEA"/>
<path d="M423.188 481.989C423.188 480.684 422.133 479.629 420.829 479.629C419.526 479.629 418.471 480.684 418.471 481.989C418.471 483.293 419.526 484.349 420.829 484.349C422.133 484.349 423.188 483.293 423.188 481.989Z" fill="#EAEAEA"/>
<path d="M461.992 481.989C461.992 480.684 460.938 479.629 459.634 479.629C458.33 479.629 457.276 480.684 457.276 481.989C457.276 483.293 458.33 484.349 459.634 484.349C460.938 484.349 461.992 483.293 461.992 481.989Z" fill="#EAEAEA"/>
<path d="M500.816 481.989C500.816 480.684 499.762 479.629 498.458 479.629C497.154 479.629 496.1 480.684 496.1 481.989C496.1 483.293 497.154 484.349 498.458 484.349C499.762 484.349 500.816 483.293 500.816 481.989Z" fill="#17191D"/>
<path d="M345.559 517.827C345.559 516.523 344.504 515.468 343.201 515.468C341.897 515.468 340.842 516.523 340.842 517.827C340.842 519.132 341.897 520.187 343.201 520.187C344.504 520.187 345.559 519.132 345.559 517.827Z" fill="#17191D"/>
<path d="M384.364 517.827C384.364 516.523 383.309 515.468 382.005 515.468C380.702 515.468 379.647 516.523 379.647 517.827C379.647 519.132 380.702 520.187 382.005 520.187C383.309 520.187 384.364 519.132 384.364 517.827Z" fill="#17191D"/>
<path d="M423.188 517.827C423.188 516.523 422.133 515.468 420.829 515.468C419.526 515.468 418.471 516.523 418.471 517.827C418.471 519.132 419.526 520.187 420.829 520.187C422.133 520.187 423.188 519.132 423.188 517.827Z" fill="#17191D"/>
<path d="M461.992 517.827C461.992 516.523 460.938 515.468 459.634 515.468C458.33 515.468 457.276 516.523 457.276 517.827C457.276 519.132 458.33 520.187 459.634 520.187C460.938 520.187 461.992 519.132 461.992 517.827Z" fill="#17191D"/>
<path d="M500.816 517.827C500.816 516.523 499.762 515.468 498.458 515.468C497.154 515.468 496.1 516.523 496.1 517.827C496.1 519.132 497.154 520.187 498.458 520.187C499.762 520.187 500.816 519.132 500.816 517.827Z" fill="#17191D"/>
<path d="M345.559 553.666C345.559 552.361 344.504 551.306 343.201 551.306C341.897 551.306 340.842 552.361 340.842 553.666C340.842 554.971 341.897 556.026 343.201 556.026C344.504 556.026 345.559 554.971 345.559 553.666Z" fill="#17191D"/>
<path d="M384.364 553.666C384.364 552.361 383.309 551.306 382.005 551.306C380.702 551.306 379.647 552.361 379.647 553.666C379.647 554.971 380.702 556.026 382.005 556.026C383.309 556.026 384.364 554.971 384.364 553.666Z" fill="#17191D"/>
<path d="M423.188 553.666C423.188 552.361 422.133 551.306 420.829 551.306C419.526 551.306 418.471 552.361 418.471 553.666C418.471 554.971 419.526 556.026 420.829 556.026C422.133 556.026 423.188 554.971 423.188 553.666Z" fill="#17191D"/>
<path d="M461.992 553.666C461.992 552.361 460.938 551.306 459.634 551.306C458.33 551.306 457.276 552.361 457.276 553.666C457.276 554.971 458.33 556.026 459.634 556.026C460.938 556.026 461.992 554.971 461.992 553.666Z" fill="#17191D"/>
<path d="M500.816 553.666C500.816 552.361 499.762 551.306 498.458 551.306C497.154 551.306 496.1 552.361 496.1 553.666C496.1 554.971 497.154 556.026 498.458 556.026C499.762 556.026 500.816 554.971 500.816 553.666Z" fill="#17191D"/>
<path d="M345.559 589.485C345.559 588.181 344.504 587.125 343.201 587.125C341.897 587.125 340.842 588.181 340.842 589.485C340.842 590.79 341.897 591.845 343.201 591.845C344.504 591.845 345.559 590.79 345.559 589.485Z" fill="#17191D"/>
<path d="M384.364 589.485C384.364 588.181 383.309 587.125 382.005 587.125C380.702 587.125 379.647 588.181 379.647 589.485C379.647 590.79 380.702 591.845 382.005 591.845C383.309 591.845 384.364 590.79 384.364 589.485Z" fill="#17191D"/>
<path d="M423.188 589.485C423.188 588.181 422.133 587.125 420.829 587.125C419.526 587.125 418.471 588.181 418.471 589.485C418.471 590.79 419.526 591.845 420.829 591.845C422.133 591.845 423.188 590.79 423.188 589.485Z" fill="#17191D"/>
<path d="M461.992 589.485C461.992 588.181 460.938 587.125 459.634 587.125C458.33 587.125 457.276 588.181 457.276 589.485C457.276 590.79 458.33 591.845 459.634 591.845C460.938 591.845 461.992 590.79 461.992 589.485Z" fill="#17191D"/>
<path d="M500.816 589.485C500.816 588.181 499.762 587.125 498.458 587.125C497.154 587.125 496.1 588.181 496.1 589.485C496.1 590.79 497.154 591.845 498.458 591.845C499.762 591.845 500.816 590.79 500.816 589.485Z" fill="#17191D"/>
<path d="M345.559 625.324C345.559 624.019 344.504 622.964 343.201 622.964C341.897 622.964 340.842 624.019 340.842 625.324C340.842 626.629 341.897 627.684 343.201 627.684C344.504 627.684 345.559 626.629 345.559 625.324Z" fill="#17191D"/>
<path d="M384.364 625.324C384.364 624.019 383.309 622.964 382.005 622.964C380.702 622.964 379.647 624.019 379.647 625.324C379.647 626.629 380.702 627.684 382.005 627.684C383.309 627.684 384.364 626.629 384.364 625.324Z" fill="#17191D"/>
<path d="M423.188 625.324C423.188 624.019 422.133 622.964 420.829 622.964C419.526 622.964 418.471 624.019 418.471 625.324C418.471 626.629 419.526 627.684 420.829 627.684C422.133 627.684 423.188 626.629 423.188 625.324Z" fill="#17191D"/>
<path d="M461.992 625.324C461.992 624.019 460.938 622.964 459.634 622.964C458.33 622.964 457.276 624.019 457.276 625.324C457.276 626.629 458.33 627.684 459.634 627.684C460.938 627.684 461.992 626.629 461.992 625.324Z" fill="#17191D"/>
<path d="M500.816 625.324C500.816 624.019 499.762 622.964 498.458 622.964C497.154 622.964 496.1 624.019 496.1 625.324C496.1 626.629 497.154 627.684 498.458 627.684C499.762 627.684 500.816 626.629 500.816 625.324Z" fill="#17191D"/>
<path d="M608.699 864.76C608.699 863.455 607.644 862.4 606.34 862.4C605.037 862.4 603.982 863.455 603.982 864.76C603.982 866.064 605.037 867.119 606.34 867.119C607.644 867.119 608.699 866.064 608.699 864.76Z" fill="#17191D"/>
<path d="M647.523 864.76C647.523 863.455 646.468 862.4 645.164 862.4C643.861 862.4 642.806 863.455 642.806 864.76C642.806 866.064 643.861 867.119 645.164 867.119C646.468 867.119 647.523 866.064 647.523 864.76Z" fill="#17191D"/>
<path d="M686.347 864.76C686.347 863.455 685.292 862.4 683.988 862.4C682.685 862.4 681.63 863.455 681.63 864.76C681.63 866.064 682.685 867.119 683.988 867.119C685.273 867.119 686.347 866.064 686.347 864.76Z" fill="#17191D"/>
<path d="M725.151 864.76C725.151 863.455 724.097 862.4 722.793 862.4C721.489 862.4 720.435 863.455 720.435 864.76C720.435 866.064 721.489 867.119 722.793 867.119C724.097 867.119 725.151 866.064 725.151 864.76Z" fill="#EAEAEA"/>
<path d="M608.699 900.579C608.699 899.274 607.644 898.219 606.34 898.219C605.037 898.219 603.982 899.274 603.982 900.579C603.982 901.884 605.037 902.939 606.34 902.939C607.644 902.939 608.699 901.884 608.699 900.579Z" fill="#17191D"/>
<path d="M647.523 900.579C647.523 899.274 646.468 898.219 645.164 898.219C643.861 898.219 642.806 899.274 642.806 900.579C642.806 901.884 643.861 902.939 645.164 902.939C646.468 902.939 647.523 901.884 647.523 900.579Z" fill="#17191D"/>
<path d="M686.347 900.579C686.347 899.274 685.292 898.219 683.988 898.219C682.685 898.219 681.63 899.274 681.63 900.579C681.63 901.884 682.685 902.939 683.988 902.939C685.273 902.939 686.347 901.884 686.347 900.579Z" fill="#17191D"/>
<path d="M725.151 900.579C725.151 899.274 724.097 898.219 722.793 898.219C721.489 898.219 720.435 899.274 720.435 900.579C720.435 901.884 721.489 902.939 722.793 902.939C724.097 902.939 725.151 901.884 725.151 900.579Z" fill="#17191D"/>
<path d="M608.699 936.418C608.699 935.113 607.644 934.058 606.34 934.058C605.037 934.058 603.982 935.113 603.982 936.418C603.982 937.723 605.037 938.778 606.34 938.778C607.644 938.778 608.699 937.723 608.699 936.418Z" fill="#17191D"/>
<path d="M647.523 936.418C647.523 935.113 646.468 934.058 645.164 934.058C643.861 934.058 642.806 935.113 642.806 936.418C642.806 937.723 643.861 938.778 645.164 938.778C646.468 938.778 647.523 937.723 647.523 936.418Z" fill="#17191D"/>
<path d="M686.347 936.418C686.347 935.113 685.292 934.058 683.988 934.058C682.685 934.058 681.63 935.113 681.63 936.418C681.63 937.723 682.685 938.778 683.988 938.778C685.273 938.778 686.347 937.723 686.347 936.418Z" fill="#17191D"/>
<path d="M725.151 936.418C725.151 935.113 724.097 934.058 722.793 934.058C721.489 934.058 720.435 935.113 720.435 936.418C720.435 937.723 721.489 938.778 722.793 938.778C724.097 938.778 725.151 937.723 725.151 936.418Z" fill="#17191D"/>
<path d="M608.699 972.237C608.699 970.933 607.644 969.877 606.34 969.877C605.037 969.877 603.982 970.933 603.982 972.237C603.982 973.542 605.037 974.597 606.34 974.597C607.644 974.616 608.699 973.542 608.699 972.237Z" fill="#EAEAEA"/>
<path d="M647.523 972.237C647.523 970.933 646.468 969.877 645.164 969.877C643.861 969.877 642.806 970.933 642.806 972.237C642.806 973.542 643.861 974.597 645.164 974.597C646.468 974.597 647.523 973.542 647.523 972.237Z" fill="#EAEAEA"/>
<path d="M686.347 972.237C686.347 970.933 685.292 969.877 683.988 969.877C682.685 969.877 681.63 970.933 681.63 972.237C681.63 973.542 682.685 974.597 683.988 974.597C685.273 974.616 686.347 973.542 686.347 972.237Z" fill="#17191D"/>
<path d="M725.151 972.237C725.151 970.933 724.097 969.877 722.793 969.877C721.489 969.877 720.435 970.933 720.435 972.237C720.435 973.542 721.489 974.597 722.793 974.597C724.097 974.616 725.151 973.542 725.151 972.237Z" fill="#17191D"/>
<path d="M608.699 1008.08C608.699 1006.77 607.644 1005.72 606.34 1005.72C605.037 1005.72 603.982 1006.77 603.982 1008.08C603.982 1009.38 605.037 1010.44 606.34 1010.44C607.644 1010.44 608.699 1009.38 608.699 1008.08Z" fill="#EAEAEA"/>
<path d="M647.523 1008.08C647.523 1006.77 646.468 1005.72 645.164 1005.72C643.861 1005.72 642.806 1006.77 642.806 1008.08C642.806 1009.38 643.861 1010.44 645.164 1010.44C646.468 1010.44 647.523 1009.38 647.523 1008.08Z" fill="#EAEAEA"/>
<path d="M686.347 1008.08C686.347 1006.77 685.292 1005.72 683.988 1005.72C682.685 1005.72 681.63 1006.77 681.63 1008.08C681.63 1009.38 682.685 1010.44 683.988 1010.44C685.273 1010.44 686.347 1009.38 686.347 1008.08Z" fill="#EAEAEA"/>
<path d="M725.151 1008.08C725.151 1006.77 724.097 1005.72 722.793 1005.72C721.489 1005.72 720.435 1006.77 720.435 1008.08C720.435 1009.38 721.489 1010.44 722.793 1010.44C724.097 1010.44 725.151 1009.38 725.151 1008.08Z" fill="#17191D"/>
<path d="M359.037 962.855C370.004 962.855 370.004 976.899 380.97 976.899C391.937 976.899 391.937 962.855 402.903 962.855C413.87 962.855 413.87 976.899 424.836 976.899C435.803 976.899 435.803 962.855 446.77 962.855C457.736 962.855 457.736 976.899 468.703 976.899C479.669 976.899 479.669 962.855 490.636 962.855C501.602 962.855 501.602 976.899 512.588 976.899C523.555 976.899 523.555 962.855 534.54 962.855" stroke="#17191D" stroke-miterlimit="10"/>
<path d="M176.617 509.076C176.617 472.302 146.782 442.49 109.979 442.49C73.1762 442.49 43.3415 472.302 43.3415 509.076C43.3416 545.85 73.1762 575.662 109.979 575.662C146.782 575.662 176.617 545.85 176.617 509.076Z" fill="#FF0B53"/>
<path d="M263.521 631.961L231.874 663.578L200.233 631.961L176.617 655.559L208.258 687.182L176.617 718.798L200.233 742.396L231.874 710.779L263.521 742.396L287.138 718.798L255.496 687.182L287.138 655.559L263.521 631.961Z" fill="#FF0B53"/>
</g>
</g>
<defs>
<clipPath id="clip0_1830_157">
<rect width="736" height="1130" fill="white"/>
</clipPath>
<clipPath id="clip1_1830_157">
<rect width="882" height="1126" fill="white" transform="translate(0 4)"/>
</clipPath>
</defs>
</svg>
